<svg width="55" height="55" viewBox="0 0 55 55" fill="none" xmlns="http://www.w3.org/2000/svg">
<g clip-path="url(#clip0_940_271)">
<path d="M43.3103 1.10583H11.2034C5.43015 1.10583 0.75 5.78598 0.75 11.5592V43.6661C0.75 49.4394 5.43015 54.1195 11.2034 54.1195H43.3103C49.0836 54.1195 53.7637 49.4394 53.7637 43.6661V11.5592C53.7637 5.78598 49.0836 1.10583 43.3103 1.10583Z" fill="black" stroke="black" stroke-width="1.64384"/>
<path d="M45.0314 17.8523C43.2312 14.7678 40.7893 12.3259 37.7051 10.5258C34.6204 8.7257 31.2529 7.82587 27.6001 7.82587C23.9478 7.82587 20.5792 8.72598 17.4952 10.5258C14.4107 12.3258 11.9689 14.7678 10.1687 17.8523C8.36877 20.9367 7.46875 24.3048 7.46875 27.9567C7.46875 32.3434 8.74859 36.288 11.3089 39.7916C13.869 43.2955 17.1762 45.72 21.2302 47.0655C21.7021 47.1531 22.0515 47.0915 22.2786 46.8822C22.5058 46.6727 22.6193 46.4103 22.6193 46.0962C22.6193 46.0437 22.6148 45.5721 22.6061 44.6807C22.5971 43.7893 22.5929 43.0117 22.5929 42.3482L21.99 42.4525C21.6055 42.5229 21.1206 42.5527 20.5351 42.5443C19.9499 42.5361 19.3424 42.4748 18.7134 42.3608C18.0842 42.2477 17.4989 41.9856 16.9571 41.575C16.4156 41.1643 16.0312 40.6267 15.804 39.9631L15.5418 39.3599C15.3671 38.9584 15.0921 38.5122 14.7163 38.0233C14.3405 37.5338 13.9605 37.202 13.5761 37.0273L13.3925 36.8959C13.2703 36.8086 13.1568 36.7033 13.0518 36.5811C12.947 36.4589 12.8685 36.3366 12.8161 36.2141C12.7636 36.0916 12.8071 35.991 12.9471 35.9122C13.0871 35.8333 13.3401 35.795 13.7073 35.795L14.2313 35.8733C14.5809 35.9434 15.0132 36.1526 15.5289 36.5023C16.0443 36.8518 16.468 37.306 16.8001 37.865C17.2022 38.5817 17.6867 39.1277 18.2549 39.5035C18.8227 39.8793 19.3951 40.0669 19.9717 40.0669C20.5483 40.0669 21.0462 40.0232 21.4658 39.9362C21.8849 39.8488 22.2782 39.7174 22.6453 39.5428C22.8026 38.3715 23.2308 37.4717 23.9296 36.8427C22.9336 36.738 22.0382 36.5804 21.2428 36.3708C20.4479 36.1609 19.6265 35.8203 18.7791 35.348C17.9312 34.8764 17.2278 34.2907 16.6688 33.592C16.1097 32.893 15.6508 31.9752 15.2928 30.8396C14.9347 29.7036 14.7556 28.3931 14.7556 26.9078C14.7556 24.7929 15.446 22.9932 16.8265 21.5077C16.1798 19.9178 16.2409 18.1354 17.0099 16.1607C17.5167 16.0032 18.2682 16.1214 19.2642 16.5144C20.2603 16.9077 20.9897 17.2445 21.453 17.5238C21.9162 17.803 22.2874 18.0396 22.5671 18.2315C24.1926 17.7773 25.8701 17.5502 27.5999 17.5502C29.3298 17.5502 31.0077 17.7773 32.6333 18.2315L33.6293 17.6027C34.3105 17.1831 35.1148 16.7986 36.0405 16.4491C36.9666 16.0997 37.6749 16.0035 38.1644 16.161C38.9505 18.1357 39.0205 19.918 38.3736 21.508C39.7541 22.9935 40.4448 24.7936 40.4448 26.908C40.4448 28.3934 40.265 29.708 39.9074 30.8528C39.5494 31.9977 39.0865 32.9146 38.5188 33.6052C37.9504 34.2957 37.2425 34.8767 36.3951 35.3483C35.5475 35.8202 34.7258 36.1608 33.9309 36.3707C33.1357 36.5806 32.2402 36.7383 31.2443 36.8431C32.1527 37.6292 32.6069 38.87 32.6069 40.565V46.0954C32.6069 46.4096 32.7162 46.6719 32.9349 46.8815C33.1533 47.0907 33.4982 47.1524 33.9701 47.0647C38.0248 45.7194 41.332 43.2948 43.8919 39.7909C46.4516 36.2873 47.7319 32.3427 47.7319 27.956C47.731 24.3046 46.8305 20.9367 45.0314 17.8523Z" fill="white"/>
</g>
<defs>
<clipPath id="clip0_940_271">
<rect width="54.507" height="54.507" fill="white" transform="translate(0 0.359161)"/>
</clipPath>
</defs>
</svg>
