<svg width="63" height="51" viewBox="0 0 63 51" fill="none" xmlns="http://www.w3.org/2000/svg">
<g filter="url(#filter0_d_953_2)">
<path d="M32.6808 27.8107L6.90427 11.4069C5.57166 10.5256 4.63846 9.15627 4.30561 7.59367C3.97276 6.03107 4.2669 4.40025 5.12468 3.05239C5.98246 1.70454 7.33526 0.747463 8.89179 0.387265C10.4483 0.0270666 12.084 0.292559 13.4467 1.12657L32.3577 13.1603L49.3371 1.27445C50.6618 0.376752 52.2865 0.0361749 53.8602 0.326274C55.434 0.616374 56.8304 1.51387 57.748 2.82491C58.6656 4.13595 59.0306 5.75531 58.7643 7.33323C58.498 8.91116 57.6216 10.321 56.3246 11.2582L32.6808 27.8107Z" fill="#EA4435"/>
<path d="M54.8594 42.8295H46.7344L46.7344 6.26703C46.7344 4.65087 47.3764 3.10089 48.5192 1.9581C49.662 0.815296 51.212 0.173279 52.8281 0.173279C54.4443 0.173279 55.9943 0.815296 57.1371 1.9581C58.2799 3.10089 58.9219 4.65087 58.9219 6.26703L58.9219 38.767C58.9219 39.8445 58.4939 40.8778 57.732 41.6397C56.9701 42.4015 55.9368 42.8295 54.8594 42.8295Z" fill="#00AC47"/>
<path d="M58.8337 5.38322C58.8159 5.26134 58.8173 5.13683 58.7919 5.01516C58.7529 4.82869 58.6804 4.65644 58.6247 4.47647C58.5708 4.27048 58.5058 4.06754 58.4301 3.86852C58.3895 3.77203 58.3269 3.68733 58.2808 3.59348C58.1544 3.32272 58.0082 3.06167 57.8433 2.81247C57.762 2.69445 57.6605 2.59391 57.5707 2.48219C57.4166 2.27914 57.2501 2.08587 57.072 1.90348C56.937 1.77206 56.783 1.66217 56.6361 1.54375C56.4801 1.40993 56.3173 1.28403 56.1486 1.16655C55.9875 1.06133 55.8112 0.980281 55.6408 0.8905C55.4613 0.796859 55.2853 0.69489 55.0985 0.62014C54.9179 0.547421 54.7253 0.501109 54.5366 0.445656C54.3479 0.390203 54.1602 0.323781 53.9665 0.287828C53.7264 0.249263 53.4842 0.224847 53.2413 0.214703C53.0871 0.203938 52.9344 0.176922 52.7796 0.178141C52.4922 0.186515 52.2059 0.215364 51.9226 0.264469C51.8083 0.281531 51.6931 0.280109 51.5795 0.303672C51.1963 0.420784 50.814 0.54131 50.4329 0.665234C50.3283 0.709922 50.2367 0.776344 50.1353 0.826719C49.1038 1.30804 48.2338 2.07781 47.6304 3.043C47.027 4.00819 46.7161 5.12748 46.7352 6.26559V17.9697L56.3227 11.2578C57.2642 10.6259 58.0024 9.73474 58.4479 8.69207C58.8935 7.6494 59.0279 6.50035 58.8337 5.38322Z" fill="#FFBA00"/>
<path d="M10.1719 0.171875C11.788 0.171875 13.338 0.813893 14.4808 1.95669C15.6236 3.09949 16.2656 4.64946 16.2656 6.26562V42.8281H8.14062C7.06318 42.8281 6.02987 42.4001 5.268 41.6382C4.50614 40.8764 4.07813 39.8431 4.07812 38.7656V6.26562C4.07813 4.64946 4.72014 3.09949 5.86294 1.95669C7.00574 0.813893 8.55571 0.171875 10.1719 0.171875Z" fill="#4285F4"/>
<path d="M4.16445 5.38324C4.18233 5.26136 4.18091 5.13685 4.2063 5.01517C4.2453 4.82871 4.31781 4.65646 4.37347 4.47649C4.42742 4.27057 4.49238 4.0677 4.56806 3.86874C4.60869 3.77225 4.67125 3.68755 4.71756 3.59371C4.84387 3.32283 4.99011 3.0617 5.15509 2.81249C5.23634 2.69447 5.33791 2.59392 5.42769 2.48221C5.58169 2.27916 5.74817 2.08589 5.92616 1.9035C6.06123 1.77208 6.2152 1.66219 6.36227 1.54377C6.5183 1.40989 6.68101 1.284 6.84977 1.16656C7.01084 1.06135 7.18716 0.980299 7.35758 0.890518C7.5337 0.7909 7.7147 0.700192 7.89992 0.618736C8.0807 0.546018 8.27327 0.499706 8.46177 0.444252C8.65027 0.388799 8.83816 0.322377 9.03194 0.286424C9.27202 0.24787 9.51415 0.223453 9.75709 0.213299C9.91147 0.202534 10.064 0.175518 10.2188 0.176737C10.5061 0.185101 10.7925 0.21395 11.0758 0.263065C11.1901 0.280127 11.3053 0.278705 11.4191 0.302268C11.6157 0.352367 11.8096 0.412572 12 0.482643C12.1915 0.533538 12.3803 0.59401 12.5657 0.66383C12.6701 0.708518 12.7617 0.77494 12.8633 0.825315C13.1266 0.949018 13.3806 1.09158 13.6234 1.25188C14.4372 1.81065 15.1027 2.55911 15.5626 3.43262C16.0224 4.30614 16.2627 5.27845 16.2628 6.26561V17.9697L6.67528 11.2582C5.73395 10.6262 4.99588 9.73497 4.55029 8.69236C4.10471 7.64976 3.97069 6.50039 4.16445 5.38324Z" fill="#C52528"/>
</g>
<defs>
<filter id="filter0_d_953_2" x="0.078125" y="0.171875" width="62.8438" height="50.6577" filterUnits="userSpaceOnUse" color-interpolation-filters="sRGB">
<feFlood flood-opacity="0" result="BackgroundImageFix"/>
<feColorMatrix in="SourceAlpha" type="matrix" values="0 0 0 0 0 0 0 0 0 0 0 0 0 0 0 0 0 0 127 0" result="hardAlpha"/>
<feOffset dy="4"/>
<feGaussianBlur stdDeviation="2"/>
<feComposite in2="hardAlpha" operator="out"/>
<feColorMatrix type="matrix" values="0 0 0 0 0 0 0 0 0 0 0 0 0 0 0 0 0 0 0.25 0"/>
<feBlend mode="normal" in2="BackgroundImageFix" result="effect1_dropShadow_953_2"/>
<feBlend mode="normal" in="SourceGraphic" in2="effect1_dropShadow_953_2" result="shape"/>
</filter>
</defs>
</svg>
