<svg width="52" height="52" viewBox="0 0 52 52" fill="none" xmlns="http://www.w3.org/2000/svg">
<path d="M43.9246 44.0585H36.3532V32.1989C36.3532 29.3714 36.3021 25.7305 32.4142 25.7305C28.471 25.7305 27.8663 28.8135 27.8663 31.9903V44.0585H20.2949V19.6708H27.5639V23.0051H27.6661C29.1481 20.4757 31.9075 18.9597 34.8372 19.0662C42.5108 19.0662 43.9288 24.1123 43.9288 30.683L43.9246 44.0542V44.0585ZM11.7526 16.3365C10.5896 16.331 9.47567 15.8667 8.65285 15.0447C7.83002 14.2227 7.36473 13.1092 7.35801 11.9462C7.35801 9.53594 9.34241 7.55154 11.7526 7.55154C14.1629 7.55154 16.143 9.53594 16.1473 11.9462C16.1473 14.3564 14.1629 16.3365 11.7526 16.3365ZM15.5383 44.0585H7.95844V19.6708H15.5383V44.0585ZM47.6932 0.516726H4.15146C3.16416 0.510991 2.21449 0.895122 1.50882 1.58564C0.803151 2.27617 0.398503 3.21728 0.382812 4.20447V47.9293C0.398503 48.9165 0.803151 49.8576 1.50882 50.5482C2.21449 51.2387 3.16416 51.6228 4.15146 51.6171H47.6975C48.6871 51.6251 49.6398 51.2422 50.3487 50.5517C51.0575 49.8612 51.4652 48.9188 51.4832 47.9293V4.20021C51.4652 3.21153 51.0573 2.27002 50.3482 1.58084C49.639 0.891669 48.6863 0.510708 47.6975 0.520984L47.6932 0.516726Z" fill="#0A66C2"/>
</svg>
